<?xml version="1.0" encoding="UTF-8"?>
<svg width="85px" height="74px" viewBox="0 0 85 74" version="1.1" xmlns="http://www.w3.org/2000/svg" xmlns:xlink="http://www.w3.org/1999/xlink">
    <!-- Generator: Sketch 51.3 (57544) - http://www.bohemiancoding.com/sketch -->
    <title>Group 5</title>
    <desc>Created with Sketch.</desc>
    <defs></defs>
    <g id="Welcome" stroke="none" stroke-width="1" fill="none" fill-rule="evenodd">
        <g id="Main-page" transform="translate(-255.000000, -2719.000000)" fill="#FFFFFF" fill-rule="nonzero">
            <g id="Group-18" transform="translate(0.000000, 2715.000000)">
                <g id="Group-5" transform="translate(250.000000, 0.000000)">
                    <g id="factory" transform="translate(5.000000, 4.000000)">
                        <path d="M23.323186,5.94916447 C20.1427515,7.32204857 19.0826067,10.9830729 21.2028963,12.813585 C23.8532584,8.69493268 28.0938377,10.0678168 34.4547066,14.6440971 C38.6952858,17.8474934 44.5260823,15.1017252 44.5260823,15.1017252 C44.5260823,15.1017252 45.5862271,20.5932616 53.5373133,21.5085177 C62.5485442,22.4237738 65.7289787,17.8474934 65.7289787,17.8474934 C65.7289787,17.8474934 67.8492683,22.4237738 75.8003544,19.6780055 C81.6311509,17.8474934 79.5108613,14.6440971 79.5108613,14.6440971 C79.5108613,14.6440971 84.8115854,14.6440971 84.8115854,11.4407009 C84.8115854,7.32204857 78.9807889,7.77967661 78.9807889,7.77967661 C78.9807889,7.77967661 80.0409337,3.20339625 74.2101372,2.74576822 C68.9094131,2.28814018 67.3191959,5.0339084 67.3191959,5.0339084 C67.3191959,5.0339084 65.7289787,-4.4408921e-16 57.7778925,-4.4408921e-16 C50.3568788,-4.4408921e-16 47.7065168,5.94916447 47.7065168,5.94916447 C47.7065168,5.94916447 45.5862271,3.20339625 39.2253582,3.20339625 C34.4547066,3.20339625 32.3344169,6.4067925 32.3344169,6.4067925 C32.3344169,6.4067925 26.5036204,4.11865232 23.323186,5.94916447 Z" id="Shape"></path>
                        <path d="M63.608689,55.3729923 L63.608689,45.7628036 L42.4057927,55.3729923 L42.4057927,45.7628036 L29.6840549,45.7628036 L26.5036204,13.7288411 L15.9021723,13.7288411 L12.7217378,45.7628036 L0,45.7628036 L0,73.2204857 L84.8115854,73.2204857 L84.8115854,45.7628036 L63.608689,55.3729923 Z M31.8043445,64.067925 L10.6014482,64.067925 L10.6014482,54.9153643 L31.8043445,54.9153643 L31.8043445,64.067925 Z" id="Shape"></path>
                    </g>
                </g>
            </g>
        </g>
    </g>
</svg>