<?xml version="1.0" encoding="UTF-8"?>
<svg width="84px" height="84px" viewBox="0 0 84 84" version="1.1" xmlns="http://www.w3.org/2000/svg" xmlns:xlink="http://www.w3.org/1999/xlink">
    <!-- Generator: Sketch 51.3 (57544) - http://www.bohemiancoding.com/sketch -->
    <title>Group 5</title>
    <desc>Created with Sketch.</desc>
    <defs></defs>
    <g id="Welcome" stroke="none" stroke-width="1" fill="none" fill-rule="evenodd">
        <g id="Main-page" transform="translate(-261.000000, -2943.000000)" fill="#FFFFFF" stroke="#728FB1">
            <g id="Group-21" transform="translate(-1.000000, 2680.000000)">
                <g id="Group-5" transform="translate(248.000000, 238.000000)">
                    <path d="M64.0217198,11.6975398 L81.5128794,84.7091087 C82.2848898,87.9316331 80.2983556,91.1698434 77.0758311,91.9418538 C76.004647,92.1984742 74.8834917,92.1552688 73.8352336,91.8169725 L26.7525059,76.6223283 C23.5989515,75.6046061 21.8675173,72.2231183 22.8852396,69.0695639 C22.9841161,68.763181 23.1074916,68.4652533 23.2541712,68.1786663 L52.8457393,10.3617416 C54.3554907,7.41194247 57.9706707,6.24455313 60.9204698,7.7543045 C62.4804784,8.55274028 63.6134402,9.9932997 64.0217198,11.6975398 Z" id="Triangle" transform="translate(52.136496, 49.600538) rotate(52.000000) translate(-52.136496, -49.600538) "></path>
                    <path d="M72.5049213,80.0792722 L81.7500206,105.483339 C82.883243,108.597255 81.2775739,112.04024 78.1636583,113.173463 C77.1074057,113.557856 75.9644164,113.637819 74.864931,113.404238 L49.9789601,108.117326 C46.7375909,107.428711 44.6681741,104.24283 45.3567884,101.001461 C45.5452525,100.114344 45.9323674,99.2814914 46.489031,98.5655154 L62.1299027,78.4483609 C64.1638527,75.832312 67.9334215,75.3604276 70.5494704,77.3943775 C71.4409558,78.0874978 72.1187469,79.018126 72.5049213,80.0792722 Z" id="Triangle" transform="translate(63.668993, 94.833049) rotate(239.000000) translate(-63.668993, -94.833049) "></path>
                    <path d="M103.441331,59.5327568 L109.459824,75.4583565 C110.629192,78.5526343 109.068745,82.0090023 105.974467,83.1783705 C104.071167,83.8976526 101.932872,83.6014861 100.296722,82.3919695 L72.0636032,61.5207628 C69.496322,59.6229116 68.9536417,56.0032067 70.8514929,53.4359255 C72.1883426,51.627528 74.4526442,50.758576 76.656091,51.2083435 L99.0287256,55.7750449 C101.04715,56.1870455 102.713082,57.6057297 103.441331,59.5327568 Z" id="Triangle" transform="translate(89.783520, 67.328247) rotate(239.000000) translate(-89.783520, -67.328247) "></path>
                </g>
            </g>
        </g>
    </g>
</svg>