<?xml version="1.0" encoding="UTF-8"?>
<svg width="74px" height="56px" viewBox="0 0 74 56" version="1.1" xmlns="http://www.w3.org/2000/svg" xmlns:xlink="http://www.w3.org/1999/xlink">
    <!-- Generator: Sketch 51.3 (57544) - http://www.bohemiancoding.com/sketch -->
    <title>Group 8</title>
    <desc>Created with Sketch.</desc>
    <defs></defs>
    <g id="Welcome" stroke="none" stroke-width="1" fill="none" fill-rule="evenodd">
        <g id="Main-page" transform="translate(-1150.000000, -991.000000)" fill="#738FAF" fill-rule="nonzero">
            <g id="Group-8" transform="translate(1149.000000, 991.000000)">
                <g id="home" transform="translate(0.836190, 0.060952)">
                    <path d="M37.0716292,11.3890305 L10.7432009,31.9568849 C10.7432009,31.9859126 10.7355027,32.0286182 10.7201062,32.0868256 C10.7050305,32.144577 10.6970116,32.1865227 10.6970116,32.2163103 L10.6970116,53.043438 C10.6970116,53.795422 10.9871386,54.4471008 11.5672323,54.995891 C12.1471657,55.5449852 12.8339119,55.82128 13.6276315,55.82128 L31.2100685,55.82128 L31.2100685,39.1590915 L42.9333503,39.1590915 L42.9333503,55.8218879 L60.5156269,55.8218879 C61.3091861,55.8218879 61.9968946,55.546201 62.5760261,54.995891 C63.1561198,54.4477087 63.4472091,53.7955739 63.4472091,53.043438 L63.4472091,32.2163103 C63.4472091,32.1008075 63.4305296,32.0135725 63.4010197,31.9568849 L37.0716292,11.3890305 Z" id="Shape"></path>
                    <path d="M73.4735124,27.2705114 L63.4462468,19.3734644 L63.4462468,1.67007908 C63.4462468,1.2653634 63.3089617,0.932533009 63.0334293,0.672043834 C62.7601421,0.411858614 62.4089103,0.281766004 61.9808567,0.281766004 L53.1894778,0.281766004 C52.7619053,0.281766004 52.4108339,0.411858614 52.1357826,0.672043834 C51.8613727,0.932533009 51.724248,1.26551538 51.724248,1.67007908 L51.724248,10.131114 L40.5518707,1.27919334 C39.5761201,0.527057444 38.4159326,0.151065484 37.0725915,0.151065484 C35.7294107,0.151065484 34.5693836,0.527057444 33.5926707,1.27919334 L0.669104504,27.2705114 C0.363901755,27.501517 0.196625628,27.8124626 0.165511948,28.2030444 C0.134558648,28.5933223 0.241211211,28.9342075 0.485790399,29.2232684 L3.32467315,32.4342458 C3.56925233,32.694431 3.88937041,32.8535513 4.2863104,32.9117586 C4.65277823,32.9409383 5.01924606,32.8394174 5.38571389,32.6081079 L37.0716292,7.57105556 L68.7578653,32.6079559 C69.0026048,32.8097818 69.3225625,32.9105428 69.7195025,32.9105428 L69.8571084,32.9105428 C70.2534069,32.8533993 70.5728834,32.6932152 70.8187456,32.4336379 L73.6579491,29.2231164 C73.9020472,28.9334476 74.0090205,28.5931703 73.9772653,28.2024365 C73.9459913,27.8129186 73.7780736,27.5019729 73.4735124,27.2705114 Z" id="Shape"></path>
                </g>
            </g>
        </g>
    </g>
</svg>