<?xml version="1.0" encoding="UTF-8"?>
<svg width="70px" height="66px" viewBox="0 0 70 66" version="1.1" xmlns="http://www.w3.org/2000/svg" xmlns:xlink="http://www.w3.org/1999/xlink">
    <!-- Generator: Sketch 51.3 (57544) - http://www.bohemiancoding.com/sketch -->
    <title>graduation-hat-and-diploma</title>
    <desc>Created with Sketch.</desc>
    <defs></defs>
    <g id="Welcome" stroke="none" stroke-width="1" fill="none" fill-rule="evenodd">
        <g id="Main-page" transform="translate(-650.000000, -986.000000)" fill="#738FAF" fill-rule="nonzero">
            <g id="graduation-hat-and-diploma" transform="translate(650.000000, 986.000000)">
                <g id="mall-building" transform="translate(0.545238, 0.353651)">
                    <polygon id="Shape" points="65.9378395 61.2558264 65.9378395 5.27094023 58.1506911 0.0522076011 30.2651477 13.3624848 30.2651477 22.7587125 14.7068812 27.9774452 14.7068812 34.7983574 3.12055902 38.0511045 3.12055902 61.0138865 0 61.0138865 0 64.8221993 3.12055902 64.8221993 3.12055902 64.8401208 6.62584449 64.8221993 6.66681073 40.5798242 26.16318 35.8109205 26.049187 64.7666427 28.8348915 64.7863564 28.8348915 64.8221993 35.4001772 64.8221993 35.4001772 61.0138865 33.3963936 61.0138865 33.3963936 38.0582731 28.6460906 30.8825158 18.3386276 33.7786256 18.3386276 30.848465 38.5706082 23.9307768 38.5706082 64.770227 52.9657896 64.770227 52.9657896 60.9905886 50.2406439 60.9905886 50.2406439 23.2802274 42.3341591 18.3195639 34.0322609 21.1923759 34.1605031 15.9718511 54.3907024 6.31396989 54.3907024 65.0354648 68.9159072 65.0354648 68.9159072 61.2558264"></polygon>
                    <polygon id="Shape" points="41.5825176 35.9489159 27.3333896 35.9489159 27.3333896 31.688982 41.5825176 29.1387565"></polygon>
                    <polygon id="Shape" points="41.5825176 33.4004826 27.3333896 35.9489159 27.3333896 31.6871898 41.5825176 29.1387565"></polygon>
                    <polygon id="Shape" points="41.5825176 33.4004826 27.3333896 35.9489159 27.3333896 31.6907741 41.5825176 29.1387565"></polygon>
                    <polygon id="Shape" points="41.5825176 33.4004826 27.3333896 35.9489159 27.3333896 31.688982 41.5825176 29.1387565"></polygon>
                </g>
            </g>
        </g>
    </g>
</svg>