<?xml version="1.0" encoding="UTF-8"?>
<svg width="74px" height="67px" viewBox="0 0 74 67" version="1.1" xmlns="http://www.w3.org/2000/svg" xmlns:xlink="http://www.w3.org/1999/xlink">
    <!-- Generator: Sketch 51.3 (57544) - http://www.bohemiancoding.com/sketch -->
    <title>graduation-hat-and-diploma</title>
    <desc>Created with Sketch.</desc>
    <defs></defs>
    <g id="Welcome" stroke="none" stroke-width="1" fill="none" fill-rule="evenodd">
        <g id="Main-page" transform="translate(-213.000000, -986.000000)" fill="#738FAF" fill-rule="nonzero">
            <g id="graduation-hat-and-diploma" transform="translate(213.000000, 986.000000)">
                <path d="M44.3658378,50.2161095 C42.413952,48.9799507 25.6982317,38.2303495 21.1925886,30.7069871 L20.9456055,30.2926701 L20.4372519,30.2745579 C16.5574592,30.1251321 13.5409083,32.2442616 12.2484434,33.3400507 C11.7209067,32.8351727 11.1837784,32.3167104 10.6346606,31.7824 L9.98003551,31.1484724 L9.33020619,31.7869281 C6.78604048,34.279622 5.66142812,36.5979859 5.98274594,38.687683 C6.2441164,40.3834394 7.47183821,41.8595851 9.53402719,42.9621664 C9.90570079,43.1614007 14.2099208,45.925778 18.8882123,49.4531323 C18.080122,50.2319577 15.1427016,52.0273313 14.0780366,52.7427639 C12.8814874,53.5442295 7.89626548,57.8164488 7.89626548,57.8164488 L11.1166373,58.5341455 L12.2316581,60.5898822 C12.2316581,60.5898822 13.7615146,57.0534717 15.4400405,55.3079067 C17.1185664,53.5623417 20.051191,52.167701 20.051191,52.167701 C20.051191,52.167701 18.4661829,54.3049426 17.3295811,56.3787916 C16.1953772,58.4526405 15.905232,62.0479157 15.905232,62.0479157 L17.8739031,61.4592686 L19.2311112,64.2530782 C19.2311112,64.2530782 19.5931932,60.3046147 20.4276604,57.7326798 C21.1014686,55.6520388 22.7536177,53.6800711 23.3674786,52.9895428 C29.2998688,57.9205941 35.4984252,63.8749856 36.7381365,65.0771841 C37.4862794,65.8877058 38.4550287,66.485409 39.716321,66.7503002 C40.1671251,66.8431253 40.6251229,66.8884058 41.0711312,66.8884058 C43.636878,66.8884058 46.0731384,65.3782997 47.6413612,62.7339159 C49.4733524,59.6571029 49.9888996,54.9252861 46.809292,51.8167767 C45.9388564,50.9587104 45.1139808,50.4719446 44.3658378,50.2161095 Z M19.211928,47.5060689 C14.9196975,44.3183186 11.0039363,41.7803442 10.4332375,41.4747005 C8.85302525,40.6302183 7.96100862,39.6091421 7.78116656,38.440904 C7.57015187,37.0689035 8.31829485,35.4523881 10.0064123,33.6275822 C14.205125,37.6847189 17.7947726,40.9041656 20.8424961,43.4647804 C19.4637069,45.5771178 19.2215196,46.7113954 19.211928,47.5060689 Z M21.8783863,42.0361792 C19.4589111,40.0053468 16.6893434,37.5443493 13.5337147,34.5603614 C14.6055733,33.6751268 16.9627033,32.0472912 19.8809405,31.9816344 C21.4060012,34.3430148 23.9333816,36.9353259 26.7820799,39.4438681 C25.3001813,39.5865018 23.449007,40.1977891 21.8783863,42.0361792 Z M23.722367,51.008519 C23.8758322,49.9127299 24.2355163,48.4026237 25.0460045,46.847237 C30.3837169,50.9519184 33.4146552,52.4529684 34.7406906,52.9804867 C34.5344717,54.4249361 34.1867771,57.7530561 34.7910464,60.7959086 C31.9255629,58.1198285 27.7124628,54.2755103 23.722367,51.008519 Z M46.0683427,61.9030179 C44.9389345,63.8025368 42.7832277,65.6386628 40.1143715,65.0817121 C35.5319957,64.1262926 36.0571345,55.7199596 36.6470165,52.5616417 L36.7956859,51.7624401 L35.9540251,51.5767899 C35.9180567,51.5677338 33.0669605,50.8115487 26.0219475,45.3801474 C27.345585,43.9266419 29.4653235,43.2768661 31.0767084,42.9893347 C35.0548148,46.1069001 39.0161359,48.8010925 41.3828575,50.3610073 C41.3109206,50.3949677 41.2437796,50.426664 41.1838322,50.4628885 C38.4550287,51.92545 37.316029,56.1569169 37.9083088,58.1832212 C38.6036981,60.5672419 40.2894177,62.0977243 42.0638594,62.0660279 C42.821594,62.0388596 44.6679725,61.6358627 45.3417807,58.4526405 L45.4472881,57.9568185 L45.042044,57.6330626 C42.481093,55.5750619 41.0951102,54.3592793 40.4332914,53.750256 C40.8553207,52.9759587 41.4116322,52.3035426 42.0806447,51.9458263 C43.0949539,51.4069878 44.248341,51.7601761 45.516827,53.003127 C48.0466053,55.4890289 47.5766181,59.3605154 46.0683427,61.9030179 Z M43.4402507,58.6020663 C43.1237286,59.6865353 42.593794,60.3385751 41.9919226,60.3544233 C41.9847289,60.3544233 41.9751373,60.3544233 41.9631478,60.3544233 C41.2102091,60.3544233 40.1527378,59.4465484 39.6515779,57.7304158 C39.490919,57.1825212 39.536479,56.3652074 39.7522894,55.5139332 C40.5028303,56.1772931 41.6754006,57.1779932 43.4402507,58.6020663 Z" id="Shape"></path>
                <path d="M14.2890513,18.4223755 L11.4211699,27.0958637 C11.4211699,27.0958637 23.1420766,28.1712766 32.9015058,31.0443272 C42.6657308,33.9241698 52.9502989,39.3374588 52.9502989,39.3374588 L55.8661382,30.5100167 C55.8661382,30.5100167 47.1066308,22.1738686 36.6733933,19.0993196 C26.2449516,16.0270347 14.2890513,18.4223755 14.2890513,18.4223755 Z" id="Shape"></path>
                <path d="M73.1453635,30.6413303 L69.7331601,27.2611377 L70.0688653,26.2355334 C70.0688653,26.2355334 73.0758246,21.0146866 65.5032748,21.9791622 C65.1100202,22.0516111 64.8750266,22.1716045 64.7431424,22.3210303 L42.2101309,0.0180983704 L0,8.81384405 L11.6082056,18.6034977 L12.2316581,16.717563 C12.2316581,16.717563 25.5663476,14.0482749 37.1937364,17.4737481 C48.823523,20.9037493 58.5925439,30.197581 58.5925439,30.197581 L57.5062978,33.4872125 L66.225041,31.8978654 C64.7719171,36.2855501 63.1029828,41.3411229 62.5826398,42.9055657 L60.1008193,42.1720209 L58.2976029,47.6192703 L62.3164735,46.4374481 L65.2706791,49.677271 L67.0690997,44.2300216 L64.3858562,43.435348 L68.3279942,31.5129808 L73.1453635,30.6413303 Z M68.1481521,29.4210197 C67.8484153,30.3311586 66.8221166,30.8383007 65.8581632,30.5552973 C64.8942097,30.2700299 64.3546835,29.3032902 64.6544203,28.3931513 C64.9589529,27.4830124 65.9852516,26.9758703 66.9468071,27.2588737 C67.9083627,27.5418771 68.4478889,28.5131447 68.1481521,29.4210197 Z M66.4456473,24.0054666 C67.3976112,23.7383114 69.0137919,23.4621001 68.5845688,24.7616517 C68.5414068,24.8884372 68.4239099,25.2552096 68.24167,25.787256 L66.4456473,24.0054666 Z" id="Shape"></path>
            </g>
        </g>
    </g>
</svg>