<?xml version="1.0" encoding="UTF-8"?>
<svg width="73px" height="85px" viewBox="0 0 73 85" version="1.1" xmlns="http://www.w3.org/2000/svg" xmlns:xlink="http://www.w3.org/1999/xlink">
    <!-- Generator: Sketch 51.3 (57544) - http://www.bohemiancoding.com/sketch -->
    <title>edit_pencil_homework_assignment_page_icon-icons.com_75495</title>
    <desc>Created with Sketch.</desc>
    <defs></defs>
    <g id="Welcome" stroke="none" stroke-width="1" fill="none" fill-rule="evenodd">
        <g id="Main-page" transform="translate(-1195.000000, -5670.000000)" fill-rule="nonzero">
            <g id="form" transform="translate(-273.000000, 4962.000000)">
                <g id="edit_pencil_homework_assignment_page_icon-icons.com_75495" transform="translate(1468.000000, 708.000000)">
                    <g id="Group">
                        <polygon id="Shape" fill="#FFFFFF" points="3.69211538 3.006875 58.619 3.006875 69.1478462 12.6357813 69.1478462 82.0303125 2.46515385 82.0303125"></polygon>
                        <polygon id="Shape" fill="#6FD4F7" points="69.4988077 17.0610938 69.4988077 13.0767188 58.619 2.78375 56.1622692 2.78375 56.1622692 15.9560938"></polygon>
                        <rect id="Rectangle-path" fill="#DDDDDD" x="4.453" y="4.2234375" width="6.55596154" height="76.3671875"></rect>
                        <rect id="Rectangle-path" fill="#DDDDDD" x="7.84469231" y="3.006875" width="47.9216923" height="7.40828125"></rect>
                        <path d="M58.0406154,5.3125 L67.3846154,14.1525 L67.3846154,79.6875 L5.61538462,79.6875 L5.61538462,5.3125 L58.0406154,5.3125 Z M60.3794231,0 L0,0 L0,85 L73,85 L73,11.953125 L60.3653846,0 C60.3738077,0 60.3794231,0 60.3794231,0 Z" id="Shape" fill="#000000"></path>
                        <polygon id="Shape" fill="#000000" points="70.1923077 19.4251562 53.3461538 19.4251562 53.3461538 2.53140625 58.9615385 2.53140625 58.9615385 14.1126562 70.1923077 14.1126562"></polygon>
                    </g>
                    <path d="M58.5075572,36.8613649 L45.4989043,24.4674906 C44.8446647,23.8441698 43.7702453,23.8441698 43.1160057,24.4674906 L17.3524998,49.0134336 L17,64 L32.7412314,63.674906 L58.5047372,39.1289629 C59.1646168,38.5083289 59.1646168,37.4873724 58.5075572,36.8613649 Z M21.3991976,59.8248254 L21.7686174,53.5298227 L28.006454,59.4728641 L21.3991976,59.8248254 Z" id="Shape" fill="#000000"></path>
                    <rect id="Rectangle-path" fill="#6FD4F7" transform="translate(41.000000, 42.500000) rotate(-45.000000) translate(-41.000000, -42.500000) " x="31" y="40" width="20" height="5"></rect>
                </g>
            </g>
        </g>
    </g>
</svg>