<?xml version="1.0" encoding="UTF-8"?>
<svg width="457px" height="80px" viewBox="0 0 457 80" version="1.1" xmlns="http://www.w3.org/2000/svg" xmlns:xlink="http://www.w3.org/1999/xlink">
    <!-- Generator: Sketch 51.3 (57544) - http://www.bohemiancoding.com/sketch -->
    <title>Rectangle 13</title>
    <desc>Created with Sketch.</desc>
    <defs></defs>
    <g id="Welcome" stroke="none" stroke-width="1" fill="none" fill-rule="evenodd">
        <g id="Main-page" transform="translate(-983.000000, -18.000000)" fill="#728FB1" stroke="#728FB1" stroke-width="3">
            <g id="Logo" transform="translate(-39.000000, 0.000000)">
                <g id="Group-10" transform="translate(40.000000, 22.000000)">
                    <polygon id="Rectangle-13" points="984 17.5413669 1004.11548 37.5577157 1004.11548 55.8657714 1012.83111 55.8657714 1012.83111 6.03140914 1031.89211 6.03140914 1031.89211 64.4566871 1042.62818 64.4566871 1042.62818 20.1746652 1066.8527 20.1746652 1066.8527 38.127792 1078.4141 38.127792 1078.4141 4.16603858 1100.73913 4.16603858 1100.73913 64.5091708 1113.40268 64.5091708 1113.40268 -2.84217094e-14 1127.55485 14.0661172 1127.55485 64.4566871 1134.19282 64.5091708 1134.19282 -2.84217094e-14 1149.05194 14.0661172 1149.05194 64.4566871 1165.65629 64.5091708 1179.52141 31.0014862 1194.69898 64.5091708 1210.57251 64.5091708 1210.57251 17.029901 1232.18298 17.029901 1232.18298 64.3625048 1245.12131 64.5091708 1245.12131 2.40821173 1268.7942 2.40821173 1268.7942 64.3135115 1287.67549 64.5091708 1287.67549 9.68435275 1307.14438 29.0024946 1307.14438 64.4337965 1322.71987 64.5091708 1322.71987 6.4300635 1343.90321 27.1539377 1343.90321 64.384175 1366.24732 64.5091708 1366.24732 3.55515868 1378.03965 14.965899 1378.03965 65.316619 1378.03965 1.19845279 1401.61299 24.7736773 1401.61299 64.4922116 1419.60831 64.5091708 1419.60831 10.9625768 1437.31752 10.9625768 1437.31752 74.1664355 1401.61299 74.1664355 1378.03965 74.1664355 1343.90321 74.1664355 1307.14438 74.1664355 1268.7942 74.1664355 1232.18298 74.1664355 1171.4337 74.1664355 1031.73764 74.1664355 984 74.1664355"></polygon>
                </g>
            </g>
        </g>
    </g>
</svg>